<svg viewBox="0 0 48 48" xmlns="http://www.w3.org/2000/svg"><g><path d="M45 0h-9v2h9a1 1 0 0 1 1 1v24H2V3a1 1 0 0 1 1-1h4V0H3a3 3 0 0 0-3 3v32a3 3 0 0 0 3 3h13v4.28l-2.32.77A1 1 0 0 0 13 44v2h-2v2h26v-2h-2v-2a1 1 0 0 0-.68-.95L32 42.28V38h13a3 3 0 0 0 3-3V3a3 3 0 0 0-3-3ZM33 44.72V46H15v-1.28l2.16-.72H28v-2H18v-4h12v5a1 1 0 0 0 .68.95ZM46 35a1 1 0 0 1-1 1H3a1 1 0 0 1-1-1v-6h44Z" fill="#4b0082" class="fill-000000"></path><path d="M40 20h-2V8a1 1 0 0 0-.29-.71l-7-7A1 1 0 0 0 30 0H13a3 3 0 0 0-3 3v17H8v2h32ZM31 3.41 34.59 7H32a1 1 0 0 1-1-1ZM36 20H12V3a1 1 0 0 1 1-1h16v4a3 3 0 0 0 3 3h4Z" fill="#4b0082" class="fill-000000"></path><path d="M17 11h14v2H17zM17 15h9v2h-9z" fill="#4b0082" class="fill-000000"></path></g></svg>