<svg data-name="Layer 1" viewBox="0 0 512 512" xmlns="http://www.w3.org/2000/svg"><path d="M166.72 99.44c-16.51 0-33.06 9.42-44.29 25.21-13 18.21-16 41.21-8.43 63.08a4.92 4.92 0 0 0 4.64 3.29 5 5 0 0 0 1.61-.27 4.92 4.92 0 0 0 3-6.24c-6.55-18.84-4-38.58 7.15-54.18 9.39-13.2 22.95-21.08 36.29-21.08a4.91 4.91 0 0 0 0-9.81Z" fill="#4b0082" class="fill-000000"></path><path d="M417.41 249.2a23.89 23.89 0 0 0-14.87 5.19 24 24 0 0 0-10.68-14.67 186.4 186.4 0 0 0 19.2-39.1c20.18-58.06-10.84-110.68-50.27-130.72-32.35-16.43-79.43-15.82-116.79 33.44-37.33-49.24-84.41-49.9-116.79-33.44-39.43 20-70.45 72.66-50.27 130.72C111.9 301.17 235.05 352.38 242 355.19v.74a72.7 72.7 0 0 0 31.67 55.18L285.5 419v27.81a4.91 4.91 0 0 0 9.81 0v-30.37a4.89 4.89 0 0 0-2.16-4.07L279.23 403a62.8 62.8 0 0 1-27.38-47.68l-4.92-75.44a6.73 6.73 0 0 1 2.52-5.73c1.62-1.35 3.69-1.82 6.49-1.05a31.61 31.61 0 0 1 23 30.33v45.06a4.91 4.91 0 0 0 9.81 0V185.73a14.18 14.18 0 1 1 28.35 0v111a4.91 4.91 0 0 0 9.81 0V247a14.18 14.18 0 0 1 28.36 0v49.65a4.9 4.9 0 1 0 9.8 0v-36.54a14.18 14.18 0 0 1 28.36 0v49.65a4.91 4.91 0 0 0 9.81 0v-36.57a14.18 14.18 0 1 1 28.35 0v88.61a65.31 65.31 0 0 1-19.27 46.51l-8.14 8.15a4.86 4.86 0 0 0-1.43 3.46v26.93a4.91 4.91 0 0 0 9.81 0V422l6.71-6.7a75.16 75.16 0 0 0 22.13-53.5v-88.61a24 24 0 0 0-23.99-23.99Zm-53-7.89a24 24 0 0 0-37.47-13.61v-42a24 24 0 1 0-48 0v91.13a42.74 42.74 0 0 0-21.15-13.45 16 16 0 0 0-14.55 3.1 16.68 16.68 0 0 0-6.09 14l4.15 63.7C218.5 334 116.26 283.86 86.21 197.4c-18.35-52.81 9.72-100.6 45.45-118.76a77.42 77.42 0 0 1 34.9-8.46c24.15 0 50.9 11.8 73.4 44.31a5.11 5.11 0 0 0 8.08 0c34.31-49.54 78.44-51 108.3-35.85 35.73 18.16 63.8 66 45.45 118.76a174 174 0 0 1-19.52 38.92 25 25 0 0 0-3-.19 23.88 23.88 0 0 0-14.89 5.18Z" fill="#4b0082" class="fill-000000"></path></svg>