<svg viewBox="0 0 64 64" xml:space="preserve" xmlns="http://www.w3.org/2000/svg" enable-background="new 0 0 64 64"><path d="M1 6v52h62V6H1zm60 2v6H3V8h58zM3 56V16h58v40H3z" fill="#4b0082" class="fill-000000"></path><path d="M5 10h2v2H5zM9 10h2v2H9zM13 10h2v2h-2zM44 24a14.999 14.999 0 0 0-9.952 3.804A14.94 14.94 0 0 0 20 18c-8.271 0-15 6.729-15 15s6.729 15 15 15c3.676 0 7.217-1.372 9.952-3.804A14.94 14.94 0 0 0 44 54c8.271 0 15-6.729 15-15s-6.729-15-15-15zM20 46c-7.168 0-13-5.832-13-13s5.832-13 13-13c6 0 11.187 4.073 12.613 9.905A13.05 13.05 0 0 1 33 33c0 3.192-1.182 6.269-3.329 8.664A13.013 13.013 0 0 1 20 46zm24 6a12.956 12.956 0 0 1-12.483-9.414A14.954 14.954 0 0 0 35 33c0-.992-.109-2.012-.323-3.037A13.007 13.007 0 0 1 44 26c7.168 0 13 5.832 13 13s-5.832 13-13 13z" fill="#4b0082" class="fill-000000"></path><path d="M20 23c-3.309 0-6 2.691-6 6v6c0 3.309 2.691 6 6 6a5.97 5.97 0 0 0 2.233-.435 7.714 7.714 0 0 0 2.212 2.267l1.109-1.664a5.728 5.728 0 0 1-1.62-1.649A5.982 5.982 0 0 0 26 35v-6c0-3.309-2.691-6-6-6zm4 12a3.96 3.96 0 0 1-.886 2.48A5.755 5.755 0 0 1 23 36.395V36h-2v.395c0 .81.139 1.596.378 2.346A3.973 3.973 0 0 1 20 39c-2.206 0-4-1.794-4-4v-6c0-2.206 1.794-4 4-4s4 1.794 4 4v6zM45.735 30h-3.471l-3.437 11H37v2h1.202l-1.157 3.702 1.909.596L40.298 43h7.405l1.343 4.298 1.909-.596L49.798 43H51v-2h-1.827l-3.438-11zm-4.812 11 2.813-9h.529l2.813 9h-6.155z" fill="#4b0082" class="fill-000000"></path></svg>