<svg fill="none" viewBox="0 0 512 512" xmlns="http://www.w3.org/2000/svg"><path d="M84.36 127H62.91A42.911 42.911 0 0 0 20 169.91v171.63a42.91 42.91 0 0 0 42.91 42.91h21.45A21.462 21.462 0 0 0 105.82 363v-9.42a8.426 8.426 0 0 1-2.15-.89l-6.43-3.72a8.566 8.566 0 0 1-4.3-7.43 8.569 8.569 0 0 1 4.3-7.43l6.43-3.72a8.462 8.462 0 0 1 2.15-.89v-61.78a8.426 8.426 0 0 1-2.15-.89l-6.43-3.71a8.58 8.58 0 0 1 0-14.87l6.43-3.71a8.878 8.878 0 0 1 2.15-.9v-61.7a8.426 8.426 0 0 1-2.15-.89l-6.43-3.71a8.58 8.58 0 0 1 0-14.87l6.43-3.71a8.878 8.878 0 0 1 2.15-.9v-9.41A21.46 21.46 0 0 0 84.36 127ZM449.09 127H148.73a21.46 21.46 0 0 0-21.46 21.45v9.41a8.878 8.878 0 0 1 2.15.9l6.43 3.71a8.574 8.574 0 0 1 3.146 11.729 8.57 8.57 0 0 1-3.146 3.141l-6.43 3.71a8.426 8.426 0 0 1-2.15.89v61.78a8.878 8.878 0 0 1 2.15.9l6.43 3.71a8.574 8.574 0 0 1 3.146 11.729 8.57 8.57 0 0 1-3.146 3.141l-6.43 3.71a8.426 8.426 0 0 1-2.15.89v61.74a8.426 8.426 0 0 1 2.15.89l6.43 3.72a8.565 8.565 0 0 1 4.299 7.43 8.566 8.566 0 0 1-4.299 7.43l-6.43 3.72a8.426 8.426 0 0 1-2.15.89v9.42a21.461 21.461 0 0 0 21.46 21.45h300.36A42.91 42.91 0 0 0 492 341.54V169.91A42.911 42.911 0 0 0 449.09 127Zm-64.36 171.63a42.907 42.907 0 0 1-39.644-26.489 42.913 42.913 0 0 1 31.273-58.506 42.912 42.912 0 0 1 44.049 18.245 42.913 42.913 0 0 1-5.336 54.182 42.911 42.911 0 0 1-30.342 12.568Z" fill="#ffffff" class="fill-000000"></path></svg>