<svg viewBox="0 0 48 48" xml:space="preserve" xmlns="http://www.w3.org/2000/svg"><g fill="#4b0082" class="fill-241f20"><path d="M6.28 17.311v8.143h.035V36.958c0 .998.667 1.814 1.571 2.098v4.225a2.233 2.233 0 0 0 2.234 2.232h2.282a2.233 2.233 0 0 0 2.234-2.232v-4.09H33.91v4.09c0 1.234.999 2.232 2.234 2.232h2.281c1.23 0 2.233-.998 2.233-2.232v-4.254a2.235 2.235 0 0 0 1.396-2.068V2.488H6.28v14.823zM9.317 5.583h29.876v14.332H9.317V5.583zM43.801 8.934h4.188v7.05h-4.188zM.011 8.934h4.21v7.05H.011z"></path></g></svg>